<?xml version="1.0" standalone="no"?>
<!DOCTYPE svg PUBLIC "-//W3C//DTD SVG 20010904//EN"
 "http://www.w3.org/TR/2001/REC-SVG-20010904/DTD/svg10.dtd">
<svg version="1.0" xmlns="http://www.w3.org/2000/svg"
 width="2rem" height="2rem" viewBox="10 10 654 654"
 preserveAspectRatio="xMidYMid meet">
<metadata>
Created by potrace 1.16, written by Peter Selinger 2001-2019
</metadata>
<g transform="translate(0.000000,654.000000) scale(0.100000,-0.100000)"
width="2.5rem" height="2rem" fill="white" stroke="none">
<path d="M673 6515 c-320 -83 -567 -331 -649 -652 l-24 -96 0 -2497 0 -2497
24 -96 c82 -323 330 -571 653 -653 l96 -24 2497 0 2497 0 99 25 c321 81 568
329 650 652 l24 96 0 2497 0 2497 -24 96 c-82 323 -329 571 -650 652 l-99 25
-2501 0 -2501 -1 -92 -24z m2581 -359 c49 -20 85 -74 97 -142 12 -73 33 39
-359 -1934 -319 -1605 -343 -1730 -367 -1935 -27 -231 -17 -304 50 -383 75
-87 222 -148 430 -178 159 -23 541 -23 740 0 357 42 700 122 1033 243 68 24
125 43 128 41 8 -8 -89 -227 -133 -300 -86 -143 -164 -203 -345 -266 -265 -93
-741 -173 -1216 -203 -262 -16 -668 -7 -792 19 -389 81 -580 271 -597 592 -11
190 -11 192 401 2265 174 875 323 1637 332 1695 22 144 16 213 -23 290 l-32
61 27 10 c85 34 304 103 375 119 99 22 206 25 251 6z"/>
</g>
</svg>
