<?xml version="1.0" standalone="no"?>
<!DOCTYPE svg PUBLIC "-//W3C//DTD SVG 20010904//EN"
 "http://www.w3.org/TR/2001/REC-SVG-20010904/DTD/svg10.dtd">
<svg version="1.0" xmlns="http://www.w3.org/2000/svg"
 width="1204.000000pt" height="176.000000pt" viewBox="0 0 1204.000000 176.000000"
 preserveAspectRatio="xMidYMid meet">
<metadata>
Created by potrace 1.16, written by Peter Selinger 2001-2019
</metadata>
<g transform="translate(0.000000,176.000000) scale(0.100000,-0.100000)"
fill="#000000" stroke="none">
<path d="M10000 1431 l-54 -330 -29 52 c-39 73 -92 123 -167 160 -59 29 -74
32 -181 36 -189 5 -306 -36 -420 -149 -117 -116 -169 -250 -169 -441 0 -214
71 -339 237 -416 51 -24 73 -28 178 -31 105 -3 129 -1 196 21 87 28 174 82
223 138 l33 39 -13 -72 c-19 -109 -20 -108 24 -108 l37 0 118 708 c64 389 117
710 117 715 0 4 -17 7 -38 7 l-38 0 -54 -329z m-273 -192 c121 -61 173 -159
173 -323 0 -165 -47 -293 -146 -396 -96 -101 -209 -145 -353 -138 -145 7 -245
67 -301 181 -68 138 -61 317 17 471 35 69 135 166 205 199 84 40 122 47 236
43 94 -2 108 -6 169 -37z"/>
<path d="M11865 1648 c-3 -13 -36 -225 -75 -473 -39 -247 -73 -462 -76 -477
-5 -26 -3 -28 29 -28 31 0 36 4 41 28 13 64 166 945 166 958 0 10 -12 14 -40
14 -33 0 -40 -4 -45 -22z"/>
<path d="M995 1638 c-10 -43 -215 -1274 -215 -1291 0 -16 27 -17 328 -17 341
0 380 4 466 45 82 39 131 88 172 170 32 65 37 86 42 167 4 82 2 100 -18 146
-26 61 -102 134 -157 153 l-37 12 41 16 c143 56 223 174 223 331 0 122 -44
201 -141 255 l-54 30 -322 3 -322 3 -6 -23z m628 -63 c90 -32 138 -103 139
-204 2 -137 -77 -242 -219 -293 -52 -19 -86 -22 -310 -26 -210 -4 -253 -2
-253 9 -1 8 18 133 42 278 l43 263 255 -5 c208 -4 264 -8 303 -22z m-84 -611
c62 -18 127 -73 152 -129 24 -51 25 -155 2 -220 -23 -70 -110 -155 -188 -186
-57 -23 -72 -24 -351 -27 l-291 -3 43 258 c24 142 46 273 49 291 l6 32 263 0
c208 0 273 -3 315 -16z"/>
<path d="M346 1328 c-23 -33 -21 -95 3 -108 71 -38 149 40 111 111 -16 29 -93
27 -114 -3z"/>
<path d="M2981 1335 c-185 -52 -321 -195 -371 -391 -22 -86 -27 -248 -9 -323
34 -151 153 -266 310 -301 85 -19 279 -9 348 18 66 26 161 88 161 105 0 6 -9
23 -18 35 l-18 24 -59 -41 c-88 -62 -174 -85 -294 -79 -116 7 -190 32 -254 89
-70 61 -117 182 -117 301 l0 38 444 0 445 0 7 46 c3 25 5 82 2 128 -8 151 -84
267 -216 329 -62 30 -76 32 -187 34 -83 2 -137 -2 -174 -12z m279 -71 c82 -23
148 -77 184 -149 25 -50 31 -75 34 -152 l4 -93 -406 0 c-383 0 -407 1 -402 18
3 9 10 37 16 62 40 151 161 274 311 314 72 20 190 20 259 0z"/>
<path d="M4205 1329 c-64 -22 -106 -50 -154 -101 l-29 -31 9 44 c15 81 13 89
-25 89 -24 0 -36 -5 -40 -17 -3 -10 -39 -223 -81 -473 -41 -250 -78 -467 -81
-483 -5 -26 -4 -27 35 -27 23 0 41 3 41 6 0 4 25 156 56 338 60 362 76 414
150 496 21 23 65 56 98 73 53 27 74 31 157 35 151 7 232 -29 275 -121 36 -79
32 -161 -30 -519 l-52 -308 38 0 c45 0 34 -40 99 350 69 413 64 493 -30 587
-59 60 -113 77 -251 80 -107 3 -134 0 -185 -18z"/>
<path d="M6411 1335 c-185 -52 -321 -195 -371 -391 -22 -86 -27 -248 -9 -323
34 -151 153 -266 310 -301 85 -19 279 -9 348 18 66 26 161 88 161 105 0 6 -9
23 -18 35 l-18 24 -59 -41 c-88 -62 -174 -85 -294 -79 -116 7 -190 32 -254 89
-70 61 -117 182 -117 301 l0 38 444 0 445 0 7 46 c3 25 5 82 2 128 -8 151 -84
267 -216 329 -62 30 -76 32 -187 34 -83 2 -137 -2 -174 -12z m279 -71 c82 -23
148 -77 184 -149 25 -50 31 -75 34 -152 l4 -93 -406 0 c-383 0 -407 1 -402 18
3 9 10 37 16 62 40 151 161 274 311 314 72 20 190 20 259 0z"/>
<path d="M7625 1329 c-64 -22 -106 -50 -154 -101 l-29 -31 9 44 c15 81 13 89
-25 89 -24 0 -36 -5 -40 -17 -3 -10 -39 -223 -81 -473 -41 -250 -78 -467 -81
-483 -5 -26 -4 -27 35 -27 23 0 41 3 41 6 0 4 25 156 56 338 60 362 76 414
150 496 21 23 65 56 98 73 53 27 74 31 157 35 151 7 232 -29 275 -121 36 -79
32 -161 -30 -519 l-52 -308 38 0 c45 0 34 -40 99 350 69 413 64 493 -30 587
-59 60 -113 77 -251 80 -107 3 -134 0 -185 -18z"/>
<path d="M10736 1339 c-130 -32 -270 -143 -334 -266 -87 -166 -96 -385 -22
-538 48 -100 149 -181 264 -211 67 -18 237 -18 305 1 92 24 163 65 232 134
115 115 166 263 157 460 -8 156 -55 259 -159 341 -81 64 -145 83 -284 86 -66
2 -137 -1 -159 -7z m269 -74 c107 -32 197 -121 237 -232 23 -65 26 -189 8
-280 -37 -182 -172 -326 -341 -363 -81 -18 -232 -8 -291 18 -94 42 -169 133
-198 241 -15 56 -15 193 0 256 41 169 159 303 315 357 63 22 203 24 270 3z"/>
<path d="M2156 858 c-43 -260 -80 -485 -83 -500 -5 -27 -4 -28 34 -28 l40 0
82 493 c45 270 81 495 81 500 0 4 -17 7 -38 7 l-37 0 -79 -472z"/>
<path d="M5030 1318 c0 -7 52 -235 117 -505 l116 -493 46 0 46 0 255 447 c140
245 270 473 288 505 l33 58 -45 0 -45 0 -260 -456 c-142 -250 -261 -452 -263
-447 -3 4 -52 209 -109 455 l-104 448 -37 0 c-24 0 -38 -5 -38 -12z"/>
<path d="M8536 858 c-43 -260 -80 -485 -83 -500 -5 -27 -4 -28 34 -28 l40 0
82 493 c45 270 81 495 81 500 0 4 -17 7 -38 7 l-37 0 -79 -472z"/>
<path d="M231 518 c-46 -266 -86 -491 -89 -500 -4 -15 3 -18 42 -18 25 0 46 4
46 9 0 6 34 223 75 484 41 261 75 482 75 491 0 11 -9 16 -33 16 l-32 0 -84
-482z"/>
<path d="M11656 439 c-20 -15 -26 -29 -26 -58 0 -47 14 -61 62 -61 46 0 78 30
78 75 0 61 -62 85 -114 44z"/>
</g>
</svg>
