<svg 
id="Layer_3" enable-background="new 0 0 64 64" height="512"
viewBox="0 0 64 64" width="512" 
xmlns="http://www.w3.org/2000/svg">
<g><g>
<path 
d="m59 46h-54c-1.657 0-3-1.343-3-3v-38c0-1.657 1.343-3 3-3h54c1.657 0 3 1.343 3 
3v38c0 1.657-1.343 3-3 3z" fill="#8892a0"/></g><g><path d="m6 6h52v32h-52z" 
fill="#521751"/></g><g>
<path 
d="m6 6v27.599c1.955.261 3.958.401 6 .401 19.377 0 35.355-12.216 37.694-28z" 
fill="#521751"/></g><g>
<path d="m10 10h10v4h-10z" fill="#b8b9b3"/></g><g>
<path d="m10 14h10v6h-10z" fill="#fff"/></g><g>
<path d="m24 10h10v4h-10z" fill="#b8b9b3"/></g><g>
<path d="m24 14h10v6h-10z" fill="#fff"/></g><g><path d="m38 10h10v4h-10z" fill="#b8b9b3"/>
</g><g><path d="m38 14h10v6h-10z" fill="#fff"/></g><g>
<path d="m24 24h10v4h-10z" fill="#b8b9b3"/></g><g>
<path d="m24 28h10v6h-10z" fill="#fff"/></g><g>
<path d="m10 24h10v4h-10z" fill="#b8b9b3"/></g><g>
<path d="m10 28h10v6h-10z" fill="#fff"/></g><g>
<path d="m38 24h10v4h-10z" fill="#b8b9b3"/></g><g>
<path d="m38 28h10v6h-10z" fill="#fff"/></g><g>
<path d="m47 20-3-10 10 3-5 2z" fill="#f7d881"/></g><g>
<path d="m45 62h-26v-3c0-1.657 1.343-3 3-3h20c1.657 0 3 1.343 3 3z" fill="#8892a0"/></g><g>
<path d="m25 46h14v10h-14z" fill="#8892a0"/></g><g>
<path 
d="m59 47h-54c-2.206 0-4-1.794-4-4v-38c0-2.206 1.794-4 4-4h54c2.206 0 4 1.794 4 
4v38c0 2.206-1.794 4-4 4zm-54-44c-1.103 0-2 .897-2 2v38c0 1.103.897 2 2 2h54c1.103 0 
2-.897 2-2v-38c0-1.103-.897-2-2-2z"/></g><g>
<path d="m45 63h-26c-.553 0-1-.448-1-1v-3c0-2.206 1.794-4 4-4h20c2.206 0 4 1.794 4 
4v3c0 .552-.447 1-1 1zm-25-2h24v-2c0-1.103-.897-2-2-2h-20c-1.103 0-2 .897-2 2z"/></g><g>
<path d="m24 46h2v10h-2z"/></g><g>
<path d="m38 46h2v10h-2z"/></g><g>
<path 
d="m58 39h-52c-.553 0-1-.448-1-1v-32c0-.552.447-1 1-1h52c.553 
0 1 .448 1 1v32c0 .552-.447 1-1 1zm-51-2h50v-30h-50z"/></g><g>
<path d="m57 41h2v2h-2z"/></g><g><path d="m53 41h2v2h-2z"/></g><g>
<path d
="m20 21h-10c-.553 0-1-.448-1-1v-10c0-.552.447-1 1-1h10c.553 0 
1 .448 1 1v10c0 .552-.447 1-1 1zm-9-2h8v-8h-8z"/></g><g>
<path d="m10 13h10v2h-10z"/></g><g>
<path 
d="m34 21h-10c-.553 0-1-.448-1-1v-10c0-.552.447-1 1-1h10c.553 0 1 .448 
1 1v10c0 .552-.447 1-1 1zm-9-2h8v-8h-8z"/></g><g>
<path d="m24 13h10v2h-10z"/></g><g>
<path d="m44 21h-6c-.553 0-1-.448-1-1v-10c0-.552.447-1 1-1h3v2h-2v8h5z"/></g><g>
<path d="m38 13h4v2h-4z"/></g><g>
<path 
d="m20 35h-10c-.553 0-1-.448-1-1v-10c0-.552.447-1 1-1h10c.553 0 
1 .448 1 1v10c0 .552-.447 1-1 1zm-9-2h8v-8h-8z"/></g><g>
<path d="m10 27h10v2h-10z"/></g><g>
<path d="m34 35h-10c-.553 0-1-.448-1-1v-10c0-.552.447-1 
1-1h10c.553 0 1 .448 1 1v10c0 .552-.447 1-1 1zm-9-2h8v-8h-8z"/></g><g>
<path d="m24 27h10v2h-10z"/></g><g>
<path d="m48 35h-10c-.553 0-1-.448-1-1v-10c0-.552.447-1 1-1h10c.553 0 1 .448 
1 1v10c0 .552-.447 1-1 1zm-9-2h8v-8h-8z"/></g><g>
<path d="m38 27h10v2h-10z"/></g><g>
<path 
d="m47 21c-.015 0-.029 0-.045-.001-.425-.019-.791-.304-.913-.712l-3-10c-.105-.352-.009-.734.251-.994s.642-.356.994-.251l10 3c.407.123.693.489.712.914s-.232.815-.628.973l-4.601 1.841-1.841 4.602c-.153.38-.522.628-.929.628zm-1.509-9.508 1.644 5.478.937-2.341c.102-.254.303-.455.558-.557l2.341-.937z"/></g></g>
</svg>